<svg width="47" height="47" viewBox="0 0 47 47" fill="none" xmlns="http://www.w3.org/2000/svg">
<path d="M19.5833 37.2084C19.1258 37.2093 18.6823 37.0499 18.33 36.7579C18.1317 36.5935 17.9678 36.3916 17.8476 36.1638C17.7275 35.9359 17.6535 35.6866 17.6298 35.4301C17.6062 35.1736 17.6334 34.915 17.7098 34.669C17.7863 34.4231 17.9105 34.1946 18.0754 33.9967L26.8487 23.5L18.3887 12.9838C18.2261 12.7835 18.1046 12.553 18.0313 12.3056C17.958 12.0581 17.9343 11.7987 17.9616 11.5421C17.9889 11.2855 18.0666 11.0368 18.1904 10.8104C18.3141 10.5839 18.4813 10.3841 18.6825 10.2225C18.8851 10.0442 19.1224 9.90977 19.3795 9.82754C19.6365 9.74532 19.9078 9.71711 20.1763 9.74469C20.4447 9.77227 20.7046 9.85505 20.9396 9.98783C21.1745 10.1206 21.3795 10.3005 21.5417 10.5163L31.0004 22.2663C31.2884 22.6167 31.4459 23.0562 31.4459 23.5098C31.4459 23.9634 31.2884 24.4029 31.0004 24.7534L21.2087 36.5034C21.0123 36.7403 20.7627 36.9277 20.4803 37.0502C20.1979 37.1727 19.8906 37.2269 19.5833 37.2084Z" fill="#00acc8"/>
</svg>