<svg width="47" height="47" viewBox="0 0 47 47" fill="none" xmlns="http://www.w3.org/2000/svg">
<path d="M27.0837 37.2083C26.7912 37.2093 26.5021 37.1447 26.2378 37.0193C25.9734 36.8939 25.7406 36.7109 25.5562 36.4837L16.0975 24.7337C15.8095 24.3833 15.652 23.9438 15.652 23.4902C15.652 23.0366 15.8095 22.597 16.0975 22.2466L25.8892 10.4966C26.2216 10.0967 26.6992 9.84521 27.2171 9.79747C27.7349 9.74973 28.2505 9.90965 28.6504 10.2421C29.0503 10.5745 29.3018 11.0521 29.3496 11.57C29.3973 12.0878 29.2374 12.6034 28.905 13.0033L20.1512 23.5L28.6112 33.9966C28.8507 34.2841 29.0028 34.6341 29.0496 35.0053C29.0964 35.3765 29.0358 35.7534 28.8751 36.0912C28.7144 36.4291 28.4603 36.7139 28.1428 36.9118C27.8254 37.1098 27.4578 37.2127 27.0837 37.2083Z" fill="#00acc8"/>
</svg>
