<svg width="26" height="27" viewBox="0 0 26 27" fill="none" xmlns="http://www.w3.org/2000/svg">
<path d="M16.3242 13.761L25.5475 4.0098C26.1508 3.32551 26.1508 2.29907 25.5475 1.70031C24.8579 1.01602 23.8235 1.01602 23.1339 1.61478L13.5658 10.5106L5.54933 1.10156C5.54933 1.01602 5.46313 0.930485 5.37693 0.930485C4.08395 -0.352562 2.10138 -0.267025 0.894592 0.930485C-0.312192 2.21353 -0.312192 4.18087 0.98079 5.46392L9.85927 14.1031L0.98079 22.3146L0.894592 22.4001C-0.139794 23.4266 -0.0535956 25.1373 0.98079 26.0782C2.01518 27.1046 3.73915 27.0191 4.68734 25.9927L13.0486 17.1824L22.7029 26.5059C23.3063 27.1046 24.3407 27.1902 25.0303 26.5914C25.7199 25.9927 25.8923 24.8807 25.2027 24.1964L16.3242 13.761Z" fill="#CDCED3"/>
</svg>
