<svg width="22" height="22" fill="none" xmlns="http://www.w3.org/2000/svg"><g opacity=".6" stroke="#000" clip-path="url(#clip0)"><path opacity=".6" d="M-3.5 25.5v-29h29v29h-29z"/><path opacity=".6" d="M19.4788 21.1516h.0001l-.0081-.0081-4.5348-4.5216-.2951-.2942-.3426.2372c-1.4619 1.0121-3.2133 1.5505-4.99061 1.5505C4.44081 18.1154.5 14.1746.5 9.30769.5 4.44081 4.44081.5 9.30769.5c4.86691 0 8.80771 3.94081 8.80771 8.80769 0 1.77731-.5384 3.52871-1.5505 4.99061l-.2376.3431.2951.2951 4.5349 4.5348c.2105.2105.3427.5197.3427.8364 0 .6493-.543 1.1923-1.1923 1.1923-.3157 0-.6208-.1312-.8289-.3484zM16.5 9.25C16.5 5.25232 13.2477 2 9.25 2 5.25232 2 2 5.25232 2 9.25c0 3.9977 3.25232 7.25 7.25 7.25 3.9977 0 7.25-3.2523 7.25-7.25z" fill="#000"/></g><defs><clipPath id="clip0"><path fill="#fff" d="M0 0h22v22H0z"/></clipPath></defs></svg>